<?xml version="1.0" encoding="UTF-8"?>
<svg xmlns="http://www.w3.org/2000/svg" viewBox="0 0 1200 1200">
  <g>
    <path fill="#f6ad01" d="M230.12,456.74c-41.94,0-64.9-33.71-65.9-67-.53-17.43,4.73-33.91,14.81-46.42,11.45-14.21,28.3-22.37,48.71-23.61,1.64-.1,3.29-.15,4.9-.15,19.72,0,36.61,7.38,48.85,21.34,10.86,12.39,17.06,28.91,17.46,46.51.39,17.5-5.08,33.95-15.41,46.31-11.75,14.06-28.97,21.99-49.8,22.93-1.21.05-2.43.08-3.62.08Z"/>
    <path fill="#ffffff" d="M232.64,324.57c77.72,0,85.42,123.29.88,127.1-1.14.05-2.28.08-3.39.08-77.25,0-84.43-122.05-2.08-127.04,1.56-.09,3.09-.14,4.6-.14M232.64,314.57v10-10c-1.72,0-3.47.05-5.21.16-21.85,1.32-39.94,10.13-52.3,25.46-10.83,13.43-16.48,31.08-15.91,49.71,1.08,35.71,25.78,71.85,70.9,71.85,1.27,0,2.56-.03,3.84-.09,22.27-1,40.73-9.55,53.41-24.72,11.11-13.29,16.99-30.92,16.57-49.63-.42-18.77-7.06-36.42-18.69-49.7-13.21-15.08-31.4-23.05-52.6-23.05h0Z"/>
  </g>
  <g>
    <path d="M598.55,254.11c-41.94,0-64.9-33.71-65.9-67-.53-17.43,4.73-33.91,14.81-46.42,11.45-14.21,28.3-22.37,48.71-23.61,1.64-.1,3.29-.15,4.9-.15,19.72,0,36.61,7.38,48.85,21.34,10.86,12.39,17.06,28.91,17.46,46.51.39,17.5-5.08,33.95-15.41,46.31-11.75,14.06-28.97,21.99-49.8,22.93-1.21.05-2.43.08-3.62.08Z"/>
    <path fill="#ffffff" d="M601.06,121.93c77.72,0,85.42,123.29.88,127.1-1.14.05-2.28.08-3.39.08-77.25,0-84.43-122.05-2.08-127.04,1.56-.09,3.09-.14,4.6-.14M601.07,111.93v10-10c-1.72,0-3.47.05-5.2.16-21.85,1.32-39.94,10.13-52.3,25.46-10.83,13.43-16.48,31.08-15.91,49.71,1.08,35.71,25.78,71.85,70.9,71.85,1.27,0,2.56-.03,3.84-.09,22.27-1,40.73-9.55,53.41-24.72,11.11-13.29,16.99-30.92,16.57-49.63-.42-18.77-7.06-36.42-18.69-49.7-13.21-15.08-31.4-23.05-52.6-23.05h0Z"/>
  </g>
  <g>
    <path fill="#f6ad01" d="M230.12,880.43c-41.94,0-64.9-33.71-65.9-67-.53-17.43,4.73-33.91,14.81-46.42,11.45-14.21,28.3-22.37,48.71-23.61,1.64-.1,3.29-.15,4.9-.15,19.72,0,36.61,7.38,48.85,21.34,10.86,12.39,17.06,28.91,17.46,46.51.39,17.5-5.08,33.95-15.41,46.31-11.75,14.06-28.97,21.99-49.8,22.93-1.21.05-2.43.08-3.62.08Z"/>
    <path fill="#ffffff" d="M232.64,748.26c77.72,0,85.42,123.29.88,127.1-1.14.05-2.28.08-3.39.08-77.25,0-84.43-122.05-2.08-127.04,1.56-.09,3.09-.14,4.6-.14M232.64,738.26v10-10c-1.72,0-3.47.05-5.2.16-21.85,1.32-39.94,10.13-52.3,25.46-10.83,13.43-16.48,31.08-15.91,49.71,1.08,35.71,25.78,71.85,70.9,71.85,1.27,0,2.56-.03,3.84-.09,22.27-1,40.73-9.55,53.41-24.72,11.11-13.29,16.99-30.92,16.57-49.63-.42-18.77-7.06-36.42-18.69-49.7-13.21-15.08-31.4-23.05-52.6-23.05h0Z"/>
  </g>
  <g>
    <path fill="#f6ad01" d="M966.98,456.74c-41.94,0-64.9-33.71-65.9-67-.53-17.43,4.73-33.91,14.81-46.42,11.45-14.21,28.3-22.37,48.71-23.61,1.64-.1,3.29-.15,4.9-.15,19.72,0,36.61,7.38,48.85,21.34,10.86,12.39,17.06,28.91,17.46,46.51.39,17.5-5.08,33.95-15.41,46.31-11.75,14.06-28.97,21.99-49.8,22.93-1.21.05-2.43.08-3.62.08Z"/>
    <path fill="#ffffff" d="M969.49,324.57c77.72,0,85.42,123.29.88,127.1-1.14.05-2.28.08-3.39.08-77.25,0-84.43-122.05-2.08-127.04,1.56-.09,3.09-.14,4.6-.14M969.49,314.57v10-10c-1.72,0-3.47.05-5.21.16-21.85,1.32-39.94,10.13-52.3,25.46-10.83,13.43-16.48,31.08-15.91,49.71,1.08,35.71,25.78,71.85,70.9,71.85,1.27,0,2.56-.03,3.84-.09,22.27-1,40.73-9.55,53.41-24.72,11.11-13.29,16.99-30.92,16.57-49.63-.42-18.77-7.06-36.42-18.69-49.7-13.21-15.08-31.4-23.05-52.6-23.05h0Z"/>
  </g>
  <g>
    <path fill="#f6ad01" d="M966.98,880.43c-41.94,0-64.9-33.71-65.9-67-.53-17.43,4.73-33.91,14.81-46.42,11.45-14.21,28.3-22.37,48.71-23.61,1.64-.1,3.29-.15,4.9-.15,19.72,0,36.61,7.38,48.85,21.34,10.86,12.39,17.06,28.91,17.46,46.51.39,17.5-5.08,33.95-15.41,46.31-11.75,14.06-28.97,21.99-49.8,22.93-1.21.05-2.43.08-3.62.08Z"/>
    <path fill="#ffffff" d="M969.49,748.26c77.72,0,85.42,123.29.88,127.1-1.14.05-2.28.08-3.39.08-77.25,0-84.43-122.05-2.08-127.04,1.56-.09,3.09-.14,4.6-.14M969.49,738.26v10-10c-1.72,0-3.47.05-5.2.16-21.85,1.32-39.94,10.13-52.3,25.46-10.83,13.43-16.48,31.08-15.91,49.71,1.08,35.71,25.78,71.85,70.9,71.85,1.27,0,2.56-.03,3.84-.09,22.27-1,40.73-9.55,53.41-24.72,11.11-13.29,16.99-30.92,16.57-49.63-.42-18.77-7.06-36.42-18.69-49.7-13.21-15.08-31.4-23.05-52.6-23.05h0Z"/>
  </g>
  <g>
    <path fill="#f6ad01" d="M598.55,677.8c-41.94,0-64.9-33.71-65.9-67-.53-17.43,4.73-33.91,14.81-46.42,11.45-14.21,28.3-22.37,48.71-23.61,1.64-.1,3.29-.15,4.9-.15,19.72,0,36.61,7.38,48.85,21.34,10.86,12.39,17.06,28.91,17.46,46.51.39,17.5-5.08,33.95-15.41,46.31-11.75,14.06-28.97,21.99-49.8,22.93-1.21.05-2.43.08-3.62.08Z"/>
    <path fill="#ffffff" d="M601.06,545.62c77.72,0,85.42,123.29.88,127.1-1.14.05-2.28.08-3.39.08-77.25,0-84.43-122.05-2.08-127.04,1.56-.09,3.09-.14,4.6-.14M601.07,535.62v10-10c-1.72,0-3.47.05-5.2.16-21.85,1.32-39.94,10.13-52.3,25.46-10.83,13.43-16.48,31.08-15.91,49.71,1.08,35.71,25.78,71.85,70.9,71.85,1.27,0,2.56-.03,3.84-.09,22.27-1,40.73-9.55,53.41-24.72,11.11-13.29,16.99-30.92,16.57-49.63-.42-18.77-7.06-36.42-18.69-49.7-13.21-15.08-31.4-23.05-52.6-23.05h0Z"/>
  </g>
  <g>
    <path d="M598.55,1083.07c-41.94,0-64.9-33.71-65.9-67-.53-17.43,4.73-33.91,14.81-46.42,11.45-14.21,28.3-22.37,48.71-23.61,1.64-.1,3.29-.15,4.9-.15,19.72,0,36.61,7.38,48.85,21.34,10.86,12.39,17.06,28.91,17.46,46.51.39,17.5-5.08,33.95-15.41,46.31-11.75,14.06-28.97,21.99-49.8,22.93-1.21.05-2.43.08-3.62.08Z"/>
    <path fill="#ffffff" d="M601.06,950.89c77.72,0,85.42,123.29.88,127.1-1.14.05-2.28.08-3.39.08-77.25,0-84.43-122.05-2.08-127.04,1.56-.09,3.09-.14,4.6-.14M601.07,940.89v10-10c-1.72,0-3.47.05-5.2.16-21.85,1.32-39.94,10.13-52.3,25.46-10.83,13.43-16.48,31.08-15.91,49.71,1.08,35.71,25.78,71.85,70.9,71.85,1.27,0,2.56-.03,3.84-.09,22.27-1,40.73-9.55,53.41-24.72,11.11-13.29,16.99-30.92,16.57-49.63-.42-18.77-7.06-36.42-18.69-49.7-13.21-15.08-31.4-23.05-52.6-23.05h0Z"/>
  </g>
  <g>
    <path d="M891.56,352.7c-23.68-13.22-48.11-26.44-71.73-39.22-44.28-23.96-90.06-48.74-133.58-74.95-9.17-5.53-13.69-14.18-11.5-22.04,1.83-6.58,7.79-10.67,15.57-10.67,2.86,0,5.92.56,9.09,1.65,36.37,12.6,78.86,40.62,119.95,67.71,28.9,19.05,56.19,37.05,80.46,49.27l3.35,1.69-5.52,29.96-6.09-3.4Z"/>
    <path fill="#ffffff" d="M690.31,210.82c2.21,0,4.7.43,7.45,1.38,60.79,21.06,140.17,86.71,199.8,116.73l-3.57,19.41c-67.98-37.96-138.49-73.93-205.17-114.09-14.46-8.71-11.49-23.42,1.49-23.43M690.32,200.82v10-10h0c-9.96,0-17.97,5.63-20.39,14.33-2.8,10.09,2.59,20.94,13.74,27.66,43.62,26.28,89.46,51.08,133.79,75.07,23.6,12.77,48.01,25.98,71.66,39.19l12.18,6.8,2.53-13.72,3.57-19.41,1.36-7.37-6.7-3.37c-24.01-12.09-51.19-30.01-79.96-48.98-41.35-27.27-84.11-55.46-121.07-68.26-3.69-1.28-7.3-1.93-10.72-1.93h0Z"/>
  </g>
  <g>
    <path d="M504.71,997.45c-23.68-13.22-48.1-26.44-71.72-39.22-44.28-23.96-90.07-48.74-133.59-74.95-9.17-5.53-13.69-14.18-11.5-22.04,1.83-6.58,7.79-10.67,15.57-10.67,2.86,0,5.92.56,9.09,1.65,36.37,12.6,78.86,40.62,119.95,67.71,28.9,19.05,56.19,37.05,80.46,49.27l3.35,1.69-5.52,29.96-6.09-3.4Z"/>
    <path fill="#ffffff" d="M303.47,855.57c2.21,0,4.7.42,7.45,1.38,60.79,21.06,140.17,86.71,199.8,116.73l-3.57,19.41c-67.98-37.96-138.49-73.93-205.17-114.09-14.46-8.71-11.49-23.42,1.49-23.43M303.47,845.57v10-10h0c-9.96,0-17.97,5.63-20.39,14.33-2.8,10.09,2.59,20.94,13.74,27.66,43.62,26.28,89.46,51.08,133.79,75.07,23.61,12.77,48.01,25.98,71.67,39.19l12.18,6.8,2.53-13.72,3.57-19.41,1.36-7.37-6.7-3.37c-24.01-12.09-51.19-30.01-79.96-48.98-41.35-27.27-84.11-55.46-121.07-68.26-3.69-1.28-7.3-1.93-10.72-1.93h0Z"/>
  </g>
  <g>
    <path d="M891.56,794.81c-23.68-13.22-48.11-26.44-71.73-39.22-44.28-23.96-90.06-48.74-133.58-74.95-9.17-5.53-13.69-14.18-11.5-22.04,1.83-6.58,7.79-10.67,15.57-10.67,2.86,0,5.92.56,9.09,1.65,36.37,12.6,78.86,40.62,119.95,67.71,28.9,19.05,56.19,37.05,80.46,49.27l3.35,1.69-5.52,29.96-6.09-3.4Z"/>
    <path fill="#ffffff" d="M690.31,652.93c2.21,0,4.7.43,7.45,1.38,60.79,21.06,140.17,86.71,199.8,116.73l-3.57,19.41c-67.98-37.96-138.49-73.93-205.17-114.09-14.46-8.71-11.49-23.42,1.49-23.43M690.32,642.93h0c-9.97,0-17.97,5.63-20.39,14.33-2.8,10.09,2.59,20.94,13.74,27.66,43.62,26.28,89.46,51.08,133.79,75.07,23.61,12.77,48.01,25.98,71.67,39.19l12.18,6.8,2.53-13.72,3.57-19.41,1.36-7.37-6.7-3.37c-24.01-12.09-51.19-30.01-79.96-48.98-41.35-27.27-84.11-55.46-121.07-68.26-3.69-1.28-7.3-1.93-10.72-1.93h0Z"/>
  </g>
  <g>
    <path d="M312.06,355.92c-1.95,0-3.92-.19-5.86-.58l-3.32-.66-4.94-26.41,3.36-1.69c32.7-16.43,64.73-35.93,95.71-54.79,28.77-17.51,58.51-35.62,88.83-51.31.98-.5,2.4-1.33,4.06-2.29,7.81-4.53,19.61-11.37,28.83-11.37,7.04,0,11.86,3.99,13.25,10.94,2.36,11.85-8.73,19.22-16.06,24.09-1.18.78-2.29,1.52-3.21,2.19-34.78,25.17-142.17,90.2-179.55,106l-1.44.61c-6.08,2.59-12.36,5.26-19.65,5.26Z"/>
    <path fill="#ffffff" d="M518.73,211.83c4.16,0,7.34,1.85,8.34,6.91,2.01,10.12-10.82,16.57-17.3,21.25-34.11,24.68-141.68,89.85-178.57,105.44-6.43,2.72-12.36,5.48-19.14,5.48-1.58,0-3.2-.15-4.89-.48l-3.63-19.38c63.26-31.79,121.78-73.62,184.59-106.12,5.49-2.84,20.79-13.1,30.59-13.1M518.73,201.83v10-10h0c-9.74,0-20.82,5.95-31.34,12.04-1.6.93-2.98,1.73-3.85,2.18-30.48,15.77-60.3,33.92-89.13,51.48-30.89,18.81-62.84,38.25-95.35,54.59l-6.72,3.38,1.38,7.4,3.63,19.38,1.25,6.66,6.65,1.31c2.26.45,4.55.67,6.82.67,8.31,0,15.08-2.88,21.62-5.66l1.42-.6c37.63-15.91,145.6-81.27,180.54-106.55.84-.61,1.91-1.32,3.04-2.07,3.69-2.45,8.27-5.5,11.95-9.5,6.91-7.53,7.21-14.88,6.25-19.73-1.84-9.23-8.79-14.96-18.15-14.96h0Z"/>
  </g>
  <g>
    <path d="M680.48,1000.67c-1.95,0-3.92-.19-5.85-.58l-3.32-.66-4.94-26.41,3.36-1.69c32.7-16.43,64.73-35.93,95.71-54.79,28.77-17.51,58.51-35.62,88.83-51.31.98-.5,2.4-1.33,4.06-2.29,7.81-4.53,19.61-11.37,28.83-11.37,7.04,0,11.86,3.99,13.25,10.93,2.36,11.85-8.73,19.22-16.06,24.1-1.18.78-2.29,1.52-3.21,2.19-34.78,25.16-142.17,90.19-179.55,106l-1.44.61c-6.08,2.59-12.36,5.26-19.66,5.26Z"/>
    <path fill="#ffffff" d="M887.15,856.58c4.16,0,7.34,1.85,8.34,6.91,2.01,10.12-10.82,16.57-17.3,21.25-34.11,24.68-141.68,89.85-178.57,105.44-6.43,2.72-12.36,5.48-19.14,5.48-1.58,0-3.2-.15-4.89-.48l-3.63-19.38c63.26-31.79,121.78-73.62,184.59-106.12,5.49-2.84,20.79-13.1,30.59-13.1M887.16,846.58v10-10h0c-9.74,0-20.82,5.95-31.34,12.04-1.6.93-2.98,1.73-3.85,2.18-30.48,15.77-60.3,33.92-89.14,51.48-30.89,18.81-62.84,38.25-95.35,54.59l-6.72,3.38,1.38,7.4,3.63,19.38,1.25,6.66,6.65,1.31c2.26.45,4.55.67,6.82.67,8.31,0,15.08-2.88,21.62-5.66l1.42-.6c37.63-15.91,145.6-81.27,180.54-106.55.84-.61,1.91-1.32,3.04-2.07,3.69-2.45,8.27-5.5,11.95-9.5,6.91-7.53,7.21-14.88,6.25-19.73-1.84-9.23-8.79-14.96-18.15-14.96h0Z"/>
  </g>
  <g>
    <polygon fill="#f6ad01" points="203.27 460.41 250.04 460.41 250.04 720.35 203.27 728.53 203.27 460.41"/>
    <path fill="#ffffff" d="M245.04,465.41v250.74l-36.77,6.43v-257.17h36.77M255.04,455.41h-56.77v279.07l11.72-2.05,36.77-6.43,8.28-1.45v-269.14h0Z"/>
  </g>
  <g>
    <polygon fill="#f6ad01" points="951.02 456.57 1000.54 456.57 1000.54 716.56 951.02 724.62 951.02 456.57"/>
    <path fill="#ffffff" d="M995.54,461.57v250.74l-39.53,6.43v-257.17h39.53M1005.54,451.57h-59.53v278.93l11.61-1.89,39.53-6.43,8.39-1.37v-269.24h0Z"/>
  </g>
  <g>
    <polygon points="257 735.29 544.7 253.96 575.49 272.36 297.53 737.41 257 735.29"/>
    <path fill="#ffffff" d="M546.43,260.81l22.21,13.27-273.85,458.17-29.23-1.53,280.87-469.92M542.97,247.1l-5.13,8.58-280.87,469.92-8.52,14.25,16.58.87,29.23,1.53,6.01.31,3.09-5.17,273.85-458.17,5.13-8.58-8.58-5.13-22.21-13.27-8.58-5.13h0Z"/>
  </g>
  <g>
    <polygon points="624.65 939.44 912.34 458.1 943.14 476.51 665.18 941.55 624.65 939.44"/>
    <path fill="#ffffff" d="M914.07,464.96l22.21,13.27-273.85,458.17-29.23-1.53,280.87-469.92M910.62,451.25l-5.13,8.58-280.87,469.92-8.52,14.25,16.58.87,29.23,1.53,6.01.31,3.09-5.17,273.85-458.17,5.13-8.58-8.58-5.13-22.21-13.27-8.58-5.13h0Z"/>
  </g>
  <g>
    <polygon points="607.38 274.24 638.13 255.77 917.18 720.16 896.2 754.9 607.38 274.24"/>
    <path fill="#ffffff" d="M636.42,262.63l274.92,457.53-15.13,25.06-281.97-469.26,22.18-13.33M639.84,248.91l-8.57,5.15-22.18,13.33-8.57,5.15,5.15,8.57,281.97,469.26,8.55,14.23,8.58-14.21,15.13-25.06,3.11-5.16-3.1-5.16-274.92-457.53-5.15-8.57h0Z"/>
  </g>
  <g>
    <polygon points="260.9 489.42 291.65 470.95 570.7 935.34 549.72 970.09 260.9 489.42"/>
    <path fill="#ffffff" d="M289.94,477.81l274.92,457.53-15.13,25.06-281.97-469.26,22.18-13.33M293.36,464.09l-8.57,5.15-22.18,13.33-8.57,5.15,5.15,8.57,281.97,469.26,8.55,14.23,8.58-14.21,15.13-25.06,3.11-5.16-3.1-5.16-274.92-457.53-5.15-8.57h0Z"/>
  </g>
  <g>
    <path d="M312.06,798.03c-1.95,0-3.92-.19-5.86-.58l-3.32-.66-4.94-26.41,3.36-1.69c32.7-16.43,64.73-35.93,95.71-54.79,28.77-17.51,58.51-35.62,88.83-51.31.97-.5,2.4-1.33,4.06-2.29,7.81-4.53,19.62-11.37,28.83-11.37,7.04,0,11.86,3.99,13.25,10.94,2.36,11.85-8.73,19.22-16.06,24.09-1.18.78-2.29,1.52-3.21,2.19-34.78,25.17-142.17,90.2-179.55,106l-1.43.61c-6.08,2.59-12.36,5.26-19.66,5.26Z"/>
    <path fill="#ffffff" d="M518.73,653.94c4.16,0,7.34,1.85,8.34,6.91,2.01,10.12-10.82,16.57-17.3,21.26-34.11,24.68-141.68,89.85-178.57,105.44-6.43,2.72-12.36,5.48-19.14,5.48-1.58,0-3.2-.15-4.89-.48l-3.63-19.38c63.26-31.79,121.78-73.62,184.59-106.12,5.49-2.84,20.79-13.1,30.59-13.1M518.73,643.94v10-10h0c-9.74,0-20.82,5.95-31.34,12.04-1.6.93-2.98,1.73-3.85,2.18-30.48,15.77-60.3,33.92-89.14,51.48-30.89,18.81-62.84,38.25-95.35,54.59l-6.72,3.38,1.38,7.4,3.63,19.38,1.25,6.66,6.65,1.31c2.26.45,4.55.67,6.82.67,8.31,0,15.08-2.88,21.61-5.66l1.42-.6c37.63-15.91,145.6-81.27,180.54-106.55.84-.61,1.91-1.32,3.04-2.07,3.69-2.45,8.27-5.5,11.95-9.5,6.91-7.53,7.21-14.88,6.25-19.73-1.84-9.23-8.79-14.96-18.15-14.96h0Z"/>
  </g>
  <g>
    <path fill="#f6ad01" d="M537.1,579.48c-27.25-14.72-55.34-29.43-82.52-43.66-50.94-26.67-103.62-54.25-153.67-83.43-4.98-2.9-16.25-10.76-13.47-21.06,2.17-8.02,11.99-12.8,26.27-12.8,71.21,0,189.03,87.01,233.41,131.4l1.87,1.87-5.88,30.92-6.01-3.25Z"/>
    <path fill="#ffffff" d="M313.71,423.54c69.51,0,186.01,86.07,229.88,129.94l-4.11,21.61c-78.21-42.25-159.34-82.29-236.05-127-19.46-11.34-12.67-24.54,10.28-24.54M313.71,413.54c-16.68,0-28.3,6.17-31.09,16.5-1.23,4.54-2.15,16.24,15.78,26.69,50.15,29.23,102.87,56.83,153.86,83.53,27.16,14.22,55.25,28.93,82.47,43.63l12.02,6.5,2.55-13.42,4.11-21.61.99-5.2-3.74-3.74c-19.66-19.66-59.51-53.15-107.1-82.83-36.6-22.82-88.84-50.03-129.85-50.03h0Z"/>
  </g>
  <g>
    <path fill="#f6ad01" d="M680.48,576.98c-1.95,0-3.92-.19-5.86-.58l-3.32-.66-4.76-25.43,2.02-1.88c58.78-54.48,118.1-88.57,186.68-107.28,1.63-.44,5.07-2.28,8.4-4.05,7.46-3.97,16.74-8.91,24.17-8.91,6.65,0,11.23,3.87,12.58,10.62,2.26,11.37-2.58,24.69-11.27,30.97-33.7,24.38-148.79,84.93-187.56,101.31l-1.43.61c-6.08,2.59-12.36,5.26-19.66,5.26Z"/>
    <path fill="#ffffff" d="M887.82,433.2c3.83,0,6.71,1.77,7.67,6.6,2.01,10.12-2.81,21.25-9.3,25.94-34.11,24.68-149.69,85.16-186.57,100.76-6.43,2.72-12.36,5.48-19.14,5.48-1.58,0-3.2-.15-4.89-.48l-3.63-19.38c53.86-49.92,112.18-86.37,184.59-106.12,6.08-1.66,21.65-12.79,31.26-12.79M887.82,423.2h0c-8.68,0-18.16,5.05-26.52,9.5-2.62,1.39-6.2,3.3-7.38,3.64-69.37,18.92-129.35,53.38-188.75,108.43l-4.05,3.75,1.01,5.42,3.63,19.38,1.25,6.66,6.65,1.31c2.26.45,4.55.67,6.82.67,8.31,0,15.08-2.88,21.62-5.66l1.42-.6c38.94-16.46,154.63-77.33,188.54-101.87,10.17-7.36,15.86-22.83,13.24-36-1.8-9.03-8.49-14.65-17.48-14.65h0Z"/>
  </g>
</svg>
